PathFileType	4	(X/Y/Z)	SUBJ24_3_walk_RCNL2025.trc
DataRate	CameraRate	NumFrames	NumMarkers	Units	OrigDataRate	OrigDataStartFrame	OrigNumFrames
100	100	8	25	mm	100	1	406
Frame#	Time	R_Shoulder			L_Shoulder			C7			J_Notch			R_Elbow			L_Elbow			R_Wrist			L_Wrist			R_Asis			L_Asis			Sacral			Thoracic			Sternum			R_Thigh_Lateral			R_Knee_Lateral			R_Shank_Lateral			R_Ankle_Lateral			R_Heel			R_Toe			L_Thigh_Lateral			L_Knee_Lateral			L_Shank_Lateral			L_Ankle_Lateral			L_Heel			L_Toe		
		X1	Y1	Z1	X2	Y2	Z2	X3	Y3	Z3	X4	Y4	Z4	X5	Y5	Z5	X6	Y6	Z6	X7	Y7	Z7	X8	Y8	Z8	X9	Y9	Z9	X10	Y10	Z10	X11	Y11	Z11	X12	Y12	Z12	X13	Y13	Z13	X14	Y14	Z14	X15	Y15	Z15	X16	Y16	Z16	X17	Y17	Z17	X18	Y18	Z18	X19	Y19	Z19	X20	Y20	Z20	X21	Y21	Z21	X22	Y22	Z22	X23	Y23	Z23	X24	Y24	Z24	X25	Y25	Z25
1	0.00000000	-3210.267578	1302.183716	371.307037	-3244.311768	1317.330200	27.437078	-3312.630127	1370.637817	206.658524	-3176.283447	1282.973633	194.177734	-3227.144043	1016.346252	461.912109	-3281.113281	1026.334351	-60.544281	-3136.609253	797.747955	440.153839	-3198.949219	805.375427	-68.277760	-3189.212402	868.088318	359.253265	-3225.955811	858.187927	35.815025	-3379.771240	914.533386	220.234116	-3377.410645	1103.723755	206.265854	NaN	NaN	NaN	-3247.304199	549.817993	391.841766	-3195.912842	420.978363	299.431335	-3210.271240	275.939117	344.966949	-3241.785645	47.255711	266.630737	-3290.513916	21.597979	208.417435	-3116.371338	24.524462	258.263550	-3218.224121	549.780273	6.853437	-3179.737061	427.748657	52.103394	-3298.137451	337.448181	15.315892	-3460.534180	184.442703	94.917755	-3501.269043	196.355530	160.338211	-3396.492920	77.747925	106.160019
2	0.01000000	-3203.411621	1303.026367	371.462128	-3238.185059	1317.661865	27.680679	-3305.984131	1371.180420	206.993774	-3169.757080	1283.436523	194.359558	-3218.584961	1017.330811	462.705780	-3277.497314	1026.820435	-59.878811	-3125.001221	800.176605	439.828598	-3197.634155	804.967163	-68.271097	-3184.166992	868.370850	359.811127	-3218.551514	858.917664	35.933998	-3373.486572	915.013367	220.110779	-3370.989258	1104.360840	207.078247	NaN	NaN	NaN	-3245.302002	549.793945	391.460358	-3194.583740	420.852386	299.424896	-3209.888184	275.975067	345.017670	-3241.728027	47.308781	266.553284	-3290.478027	21.710222	208.440521	-3116.300049	24.452393	258.255066	-3206.875000	551.651550	6.668101	-3166.699463	430.027893	51.942490	-3283.156494	336.856720	15.165124	-3442.866455	181.178070	95.031120	-3484.024414	192.059875	160.284134	-3376.193359	76.381546	106.529175
3	0.02000000	-3194.791504	1303.967651	371.652588	-3230.494141	1317.970459	27.972361	-3297.629150	1371.766846	207.409470	-3161.566406	1283.903564	194.553513	-3207.831787	1018.466064	463.696136	-3272.961426	1027.361938	-59.051537	-3110.446167	803.179169	439.380875	-3195.952759	804.445435	-68.243950	-3177.752930	868.636658	360.480957	-3209.222900	859.759888	36.103077	-3365.580811	915.525818	219.886948	-3362.919678	1105.057373	208.069656	NaN	NaN	NaN	-3242.555176	549.872070	391.027496	-3192.813721	420.694519	299.400604	-3209.247070	275.996887	345.053192	-3241.670654	47.389896	266.466217	-3290.424805	21.859163	208.450134	-3116.213623	24.361219	258.244904	-3192.664307	553.969421	6.448951	-3150.511230	432.800751	51.780197	-3264.371826	335.880951	15.006549	-3420.339111	176.680969	95.143509	-3461.943359	186.149323	160.228607	-3350.292480	74.453468	106.825371
4	0.03000000	-3184.759766	1304.903320	371.864685	-3221.554932	1318.191284	28.292253	-3287.905518	1372.323608	207.884491	-3152.045166	1284.303833	194.742355	-3195.320557	1019.651550	464.832245	-3267.686279	1027.900757	-58.101772	-3093.557983	806.603455	438.810638	-3193.959229	803.826141	-68.184252	-3170.183350	868.826233	361.215027	-3198.373291	860.669617	36.319176	-3356.370361	916.002197	219.542953	-3353.534668	1105.734375	209.179520	NaN	NaN	NaN	-3239.053467	550.100647	390.587921	-3190.621582	420.511169	299.357239	-3208.300537	275.992676	345.060089	-3241.623535	47.502209	266.376251	-3290.351807	22.040571	208.432648	-3116.117676	24.254984	258.236755	-3176.206543	556.611877	6.219829	-3131.950684	435.896515	51.652561	-3242.583496	334.467834	14.861276	-3393.691895	170.948410	95.223465	-3435.714844	178.631546	160.164246	-3319.646729	71.951561	106.965347
5	0.04000000	-3173.740967	1305.728394	372.083313	-3211.740234	1318.266357	28.618765	-3277.219238	1372.778320	208.392990	-3141.589111	1284.571167	194.913300	-3181.568115	1020.783081	466.049957	-3261.879150	1028.378540	-57.075253	-3075.067993	810.272125	438.129654	-3191.719727	803.127289	-68.079069	-3161.719238	868.884338	361.958893	-3186.492676	861.605774	36.574886	-3346.230957	916.373596	219.072479	-3343.229980	1106.315186	210.335495	NaN	NaN	NaN	-3234.823486	550.505676	390.186981	-3188.045410	420.308502	299.299927	-3207.030518	275.955353	345.030823	-3241.593750	47.646328	266.287781	-3290.255615	22.246651	208.375671	-3116.019043	24.139929	258.238281	-3158.237793	559.426697	6.015910	-3111.935303	439.115906	51.602158	-3218.751953	332.608704	14.746086	-3363.851318	164.058197	95.227898	-3406.220947	169.625839	160.063049	-3285.342041	68.914795	106.890198
6	0.05000000	-3162.129150	1306.358276	372.296204	-3201.385254	1318.154053	28.933287	-3265.943848	1373.072266	208.909286	-3130.561035	1284.652832	195.059647	-3167.046143	1021.773376	467.286285	-3255.720703	1028.747559	-56.013355	-3055.649658	814.020935	437.358414	-3189.287231	802.362152	-67.918579	-3152.601807	868.773376	362.664246	-3174.017334	862.520813	36.864735	-3335.505371	916.581421	218.483215	-3332.368408	1106.737183	211.467682	NaN	NaN	NaN	-3229.919922	551.073120	389.858673	-3185.124023	420.089233	299.234589	-3205.451904	275.885864	344.965820	-3241.581055	47.820255	266.199615	-3290.134277	22.471766	208.272430	-3115.924805	24.025425	258.262482	-3139.449951	562.255859	5.882326	-3091.321045	442.268311	51.669048	-3193.767578	330.331665	14.667190	-3331.680908	156.143875	95.105728	-3374.293457	159.324600	159.873856	-3248.416504	65.429245	106.575058
7	0.06000000	-3150.235596	1306.732300	372.492035	-3190.747314	1317.831787	29.221634	-3254.372803	1373.164917	209.409683	-3119.247070	1284.512695	195.181946	-3152.125488	1022.560791	468.486572	-3249.344971	1028.975952	-54.947956	-3035.838745	817.716309	436.518265	-3186.688110	801.536774	-67.698734	-3143.024658	868.479309	363.295349	-3161.261719	863.353821	37.188011	-3324.461426	916.581970	217.794601	-3321.233398	1106.956787	212.516815	NaN	NaN	NaN	-3224.424072	551.743347	389.618347	-3181.887451	419.851410	299.162018	-3203.599854	275.791748	344.870117	-3241.573242	48.019627	266.103333	-3289.988525	22.717192	208.122849	-3115.842285	23.923632	258.324677	-3120.430664	564.945374	5.865859	-3070.802002	445.188019	51.883751	-3168.342773	327.684113	14.617742	-3297.868896	147.377853	94.803162	-3340.597412	147.965622	159.530075	-3209.724854	61.622101	106.024567
8	0.07000000	-3138.276367	1306.812012	372.659088	-3179.996338	1317.294922	29.473440	-3242.708984	1373.031738	209.872314	-3107.845947	1284.129761	195.286621	-3137.063965	1023.108643	469.604950	-3242.834961	1029.047485	-53.900356	-3016.015625	821.261322	435.624435	-3183.922241	800.651245	-67.420057	-3133.134277	868.007141	363.832214	-3148.416260	864.037231	37.546093	-3313.282471	916.345947	217.033829	-3310.021240	1106.950073	213.437637	NaN	NaN	NaN	-3218.442627	552.422729	389.461212	-3178.350830	419.589935	299.076660	-3201.511719	275.681702	344.748291	-3241.547852	48.240154	265.985199	-3289.821289	22.991215	207.932281	-3115.772949	23.842678	258.429504	-3101.659668	567.349060	5.998610	-3050.881104	447.737366	52.264305	-3142.980225	324.715149	14.579707	-3262.901123	137.961746	94.271095	-3305.604736	135.815704	158.964539	-3169.896729	57.650455	105.264542
